<svg xmlns="http://www.w3.org/2000/svg" xmlns:xlink="http://www.w3.org/1999/xlink" width="1080" zoomAndPan="magnify" viewBox="0 0 810 161.999997" height="216" preserveAspectRatio="xMidYMid meet" version="1.0"><defs><clipPath id="ff6d9d2ebf"><path d="M 0 5.511719 L 115 5.511719 L 115 119.230469 L 0 119.230469 Z M 0 5.511719 " clip-rule="nonzero"/></clipPath><clipPath id="d01d65338c"><path d="M 111.890625 71.023438 C 110.910156 71.023438 104.640625 71.347656 93.085938 71.992188 C 88.75 71.992188 85.046875 71.894531 81.96875 71.664062 C 78.902344 71.457031 76.378906 71.242188 74.433594 71.023438 C 71.945312 71.023438 70.699219 71.621094 70.699219 72.804688 C 70.699219 73.773438 72.074219 74.492188 74.839844 74.96875 C 77.597656 75.460938 79.238281 75.8125 79.785156 76.027344 C 83.570312 77.425781 85.460938 81.515625 85.460938 88.304688 C 85.460938 97.472656 83.191406 104.203125 78.660156 108.507812 C 74.097656 112.820312 66.964844 114.96875 57.246094 114.96875 C 45.667969 114.96875 36.558594 110.460938 29.925781 101.441406 C 23.277344 92.433594 19.949219 79.78125 19.949219 63.472656 C 19.949219 45.453125 23.316406 31.820312 30.089844 22.589844 C 36.824219 13.359375 46.746094 8.746094 59.84375 8.746094 C 74.96875 8.746094 85.246094 16.304688 90.648438 31.449219 C 91.179688 32.757812 91.667969 34.351562 92.101562 36.230469 C 92.535156 38.132812 93.136719 39.082031 93.894531 39.082031 C 94.875 39.082031 95.347656 38.429688 95.347656 37.132812 L 96.050781 19.921875 L 96.609375 7.796875 L 93.546875 6.835938 C 93.085938 10.035156 92.351562 11.734375 91.667969 12.636719 C 91.472656 12.867188 90.542969 13.710938 88.714844 13.078125 L 75.398438 7.941406 C 70.003906 6.316406 64.003906 5.511719 57.40625 5.511719 C 40.429688 5.511719 26.613281 11.089844 15.972656 22.261719 C 5.308594 33.449219 0 47.9375 0 65.734375 C 0 81.074219 4.859375 93.652344 14.589844 103.472656 C 24.859375 113.949219 37.945312 119.1875 53.832031 119.1875 C 61.402344 119.1875 68.6875 117.746094 75.726562 114.851562 L 90.96875 107.316406 C 92.59375 106.574219 94.460938 105.980469 96.574219 105.550781 C 98.671875 105.140625 100.96875 104.910156 103.453125 104.910156 C 103.128906 102.433594 102.90625 100.367188 102.800781 98.753906 C 102.695312 97.136719 102.640625 94.863281 102.640625 91.945312 L 102.640625 90.152344 C 102.640625 86.050781 102.886719 83.042969 103.371094 81.15625 C 103.855469 79.269531 104.835938 77.863281 106.289062 76.941406 C 107.753906 76.023438 109.570312 75.292969 111.734375 74.746094 C 113.898438 74.199219 114.96875 73.503906 114.96875 72.648438 C 114.96875 71.554688 113.941406 71.015625 111.890625 71.015625 " clip-rule="nonzero"/></clipPath><clipPath id="e8f538f44c"><path d="M 122.425781 43.453125 L 199.808594 43.453125 L 199.808594 119.492188 L 122.425781 119.492188 Z M 122.425781 43.453125 " clip-rule="nonzero"/></clipPath><clipPath id="937021799e"><path d="M 160.699219 115.945312 C 153.46875 115.945312 147.890625 112.964844 144.003906 107.003906 C 140.105469 101.03125 138.160156 92.585938 138.160156 81.648438 C 138.160156 70.808594 140.277344 62.285156 144.480469 56.046875 C 148.703125 49.828125 154.109375 46.699219 160.699219 46.699219 C 168.046875 46.699219 173.78125 49.65625 177.894531 55.5625 C 181.996094 61.457031 184.046875 69.949219 184.046875 81.003906 C 184.046875 104.296875 176.269531 115.949219 160.699219 115.949219 M 176.1875 46.125 C 171.8125 44.347656 167.078125 43.453125 162.003906 43.453125 C 150.964844 43.453125 141.617188 47.078125 133.953125 54.335938 C 126.265625 61.601562 122.425781 70.597656 122.425781 81.324219 C 122.425781 92.367188 126.128906 101.441406 133.539062 108.539062 C 140.949219 115.632812 150.273438 119.191406 161.511719 119.191406 C 171.988281 119.191406 180.96875 115.394531 188.433594 107.8125 C 192.101562 104.015625 194.921875 99.796875 196.863281 95.136719 C 198.816406 90.484375 199.785156 85.59375 199.785156 80.511719 C 199.785156 70.757812 195.894531 61.972656 188.109375 54.179688 C 184.535156 50.605469 180.570312 47.925781 176.183594 46.125 " clip-rule="nonzero"/></clipPath><clipPath id="34e603d7c8"><path d="M 208.695312 42.964844 L 296.507812 42.964844 L 296.507812 117 L 208.695312 117 Z M 208.695312 42.964844 " clip-rule="nonzero"/></clipPath><clipPath id="d128611575"><path d="M 293.101562 113.351562 C 290.992188 112.917969 289.457031 112.488281 288.476562 112.054688 C 286.644531 111.191406 285.539062 110.191406 285.160156 109.046875 C 284.785156 107.921875 284.597656 105.824219 284.597656 102.800781 L 284.597656 65.039062 C 284.597656 58.003906 282.53125 52.652344 278.429688 48.96875 C 274.316406 45.304688 268.382812 43.453125 260.589844 43.453125 C 249.136719 43.453125 240.210938 48.589844 233.828125 58.851562 C 233.613281 56.042969 233.351562 52.695312 233.027344 48.804688 C 232.707031 44.917969 231.730469 42.964844 230.105469 42.964844 C 229.785156 42.964844 228.132812 43.515625 225.160156 44.589844 C 222.183594 45.671875 218.707031 46.628906 214.710938 47.425781 C 210.6875 48.242188 208.695312 49.082031 208.695312 49.9375 C 208.695312 50.699219 209.773438 51.21875 211.9375 51.488281 C 214.109375 51.75 215.617188 52.101562 216.484375 52.539062 C 218.097656 53.410156 219.164062 54.636719 219.648438 56.257812 C 220.125 57.890625 220.382812 60.433594 220.382812 63.882812 L 220.382812 102.800781 C 220.382812 105.726562 220.171875 107.804688 219.734375 109.046875 C 219.300781 110.285156 218.210938 111.285156 216.484375 112.054688 C 215.617188 112.488281 214.109375 112.917969 211.9375 113.351562 C 209.773438 113.769531 208.695312 114.425781 208.695312 115.289062 C 208.695312 116.488281 209.511719 117.078125 211.132812 117.078125 C 213.730469 116.859375 216.101562 116.652344 218.257812 116.421875 C 220.417969 116.210938 223.507812 116.109375 227.507812 116.109375 C 228.589844 116.109375 231.464844 116.265625 236.109375 116.59375 C 240.753906 116.914062 243.292969 117.078125 243.738281 117.078125 C 245.460938 117.078125 246.316406 116.59375 246.316406 115.617188 C 246.316406 114.542969 245.273438 113.769531 243.164062 113.351562 C 241.054688 112.917969 239.519531 112.488281 238.539062 112.054688 C 236.707031 111.191406 235.601562 110.191406 235.21875 109.046875 C 234.839844 107.921875 234.644531 105.824219 234.644531 102.800781 L 234.644531 72.152344 C 234.644531 65.453125 236.65625 59.894531 240.648438 55.460938 C 244.648438 51.023438 249.460938 48.804688 255.078125 48.804688 C 265.238281 48.804688 270.335938 54.535156 270.335938 65.988281 L 270.335938 102.808594 C 270.335938 105.730469 270.101562 107.808594 269.6875 109.050781 C 269.246094 110.292969 268.160156 111.292969 266.433594 112.058594 C 265.570312 112.492188 264.054688 112.921875 261.890625 113.355469 C 259.738281 113.773438 258.652344 114.429688 258.652344 115.292969 C 258.652344 116.496094 259.507812 117.085938 261.246094 117.085938 C 263.84375 116.863281 266.1875 116.65625 268.300781 116.429688 C 270.421875 116.21875 273.464844 116.117188 277.460938 116.117188 C 278.429688 116.117188 281.296875 116.273438 286.058594 116.601562 C 290.8125 116.917969 293.398438 117.085938 293.84375 117.085938 C 295.460938 117.085938 296.265625 116.601562 296.265625 115.621094 C 296.265625 114.546875 295.21875 113.773438 293.105469 113.355469 " clip-rule="nonzero"/></clipPath><clipPath id="3de52e13c9"><path d="M 305.515625 30.917969 L 380.542969 30.917969 L 380.542969 162 L 305.515625 162 Z M 305.515625 30.917969 " clip-rule="nonzero"/></clipPath><clipPath id="6004478272"><path d="M 350.269531 86.472656 C 347.351562 90.375 343.296875 92.320312 338.097656 92.320312 C 333.140625 92.320312 329.214844 90.289062 326.339844 86.226562 C 323.476562 82.152344 322.054688 76.539062 322.054688 69.367188 C 322.054688 62.546875 323.542969 57.058594 326.507812 52.929688 C 329.476562 48.804688 333.242188 46.753906 337.789062 46.753906 C 343.074219 46.753906 347.214844 48.734375 350.1875 52.695312 C 353.160156 56.65625 354.640625 62.324219 354.640625 69.6875 C 354.640625 76.96875 353.183594 82.566406 350.265625 86.46875 M 379.125 35.695312 L 371.871094 30.917969 C 369.734375 32.699219 367.695312 34.265625 365.777344 35.621094 L 359.859375 39.382812 C 357.785156 40.621094 355.613281 41.753906 353.386719 42.796875 L 353.253906 42.863281 C 351.597656 43.53125 348.648438 44.371094 344.859375 44 L 343.109375 43.746094 C 343.09375 43.746094 343.082031 43.746094 343.078125 43.738281 L 343.078125 43.746094 L 338.757812 43.5 C 330.007812 43.5 322.753906 45.996094 317.015625 51 C 311.292969 55.996094 308.425781 62.304688 308.425781 69.898438 C 308.425781 75.328125 309.988281 80.117188 313.128906 84.246094 C 316.273438 88.375 320.65625 91.457031 326.265625 93.53125 C 316.210938 95.46875 311.191406 100.34375 311.191406 108.144531 C 311.191406 113.445312 313.457031 117.257812 317.996094 119.605469 C 322.527344 121.929688 329.402344 123.089844 338.589844 123.089844 C 348.753906 123.089844 355.953125 124.144531 360.15625 126.261719 C 364.375 128.378906 366.480469 132.585938 366.480469 138.882812 C 366.480469 144.730469 364.324219 149.347656 359.996094 152.710938 C 355.667969 156.070312 349.617188 157.753906 341.839844 157.753906 C 333.722656 157.753906 327.394531 156.226562 322.855469 153.203125 C 318.3125 150.171875 316.039062 146.09375 316.039062 140.988281 C 316.039062 137.417969 316.75 134.539062 318.167969 132.363281 C 319.550781 130.195312 321.242188 128.621094 323.183594 127.648438 C 323.183594 126.121094 321.335938 125.367188 317.671875 125.367188 C 314.535156 125.367188 311.710938 126.726562 309.230469 129.429688 C 306.746094 132.164062 305.515625 135.304688 305.515625 138.882812 C 305.515625 145.609375 308.675781 151.109375 315.003906 155.394531 C 321.316406 159.679688 329.730469 161.824219 340.222656 161.824219 C 351.785156 161.824219 360.84375 159.300781 367.378906 154.238281 C 373.917969 149.214844 377.199219 142.347656 377.199219 133.667969 C 377.199219 124.65625 374.324219 118.179688 368.59375 114.21875 C 362.859375 110.246094 353.722656 108.277344 341.191406 108.277344 C 326.378906 108.277344 318.980469 106.523438 318.980469 102.96875 C 318.980469 100.199219 320.605469 98.265625 323.839844 97.1875 C 327.074219 96.117188 332.105469 95.566406 338.917969 95.566406 C 348.765625 95.566406 356.152344 93.402344 361.140625 89.046875 C 366.113281 84.691406 368.59375 78.472656 368.59375 70.421875 C 368.59375 64.828125 366.695312 59.386719 362.941406 54.109375 C 362.234375 53.160156 361.25 51.996094 360.035156 50.972656 L 360 50.988281 C 357.863281 49.183594 355.570312 47.71875 353.121094 46.566406 L 355.265625 46.054688 C 357.664062 45.460938 359.882812 44.867188 361.976562 44.25 L 368.390625 42.140625 C 370.53125 41.347656 372.949219 40.359375 375.640625 39.1875 L 378.113281 38.832031 C 379.332031 38.648438 380.03125 38.234375 380.222656 37.644531 C 380.398438 37.019531 380.03125 36.378906 379.125 35.691406 " clip-rule="nonzero"/></clipPath><clipPath id="5d4e60a4a1"><path d="M 419.664062 43.457031 L 481.90625 43.457031 L 481.90625 119.492188 L 419.664062 119.492188 Z M 419.664062 43.457031 " clip-rule="nonzero"/></clipPath><clipPath id="9e2ef5c3ed"><path d="M 479.875 104.945312 L 479.539062 105.324219 C 476.863281 108.21875 470.1875 114.09375 459.441406 114.140625 C 452.207031 113.929688 446.507812 111.117188 442.347656 105.71875 C 438.042969 100.074219 435.878906 92.109375 435.878906 81.808594 C 435.878906 70.757812 437.980469 62.195312 442.207031 56.128906 C 446.410156 50.054688 452.089844 47.027344 459.226562 47.027344 C 462.792969 47.027344 465.285156 47.628906 466.691406 48.804688 C 467.558594 49.566406 468.628906 51.515625 469.925781 54.644531 C 471.230469 57.78125 473.386719 59.347656 476.417969 59.347656 C 479.867188 59.347656 481.597656 57.621094 481.597656 54.148438 C 481.597656 51.136719 479.699219 48.585938 475.933594 46.539062 C 472.144531 44.484375 467.128906 43.457031 460.84375 43.457031 C 449.390625 43.457031 440.039062 46.757812 432.785156 53.367188 C 424.03125 61.285156 419.664062 70.863281 419.664062 82.132812 C 419.664062 93.851562 422.953125 102.925781 429.550781 109.429688 C 436.148438 115.9375 445.277344 119.195312 456.960938 119.195312 L 460.542969 119.074219 L 460.53125 119.085938 C 477.644531 118.441406 481.601562 105.558594 481.601562 105.558594 L 480.503906 104.207031 C 480.289062 104.46875 480.082031 104.703125 479.875 104.953125 " clip-rule="nonzero"/></clipPath><clipPath id="ffb3bb41e8"><path d="M 492 0 L 581.808594 0 L 581.808594 117.082031 L 492 117.082031 Z M 492 0 " clip-rule="nonzero"/></clipPath><clipPath id="d9f429b945"><path d="M 578.375 113.304688 C 576.273438 112.886719 574.734375 112.441406 573.75 112.015625 C 571.917969 111.148438 570.8125 110.15625 570.441406 109.027344 C 570.046875 107.886719 569.875 105.800781 569.875 102.769531 L 569.875 65 C 569.875 57.988281 567.828125 52.691406 563.757812 49.121094 C 559.691406 45.566406 553.710938 43.773438 545.78125 43.773438 C 534.613281 43.773438 525.9375 48.261719 519.757812 57.238281 L 519.757812 2.582031 C 519.75 0.863281 519.171875 0 517.996094 0 L 510.242188 1.78125 C 509.113281 2.019531 507.804688 2.265625 506.351562 2.527344 L 492.863281 4.671875 C 492.8125 4.6875 491.972656 4.859375 492.46875 5.410156 L 495.578125 8.765625 C 502.421875 7.9375 504.511719 10.597656 505.152344 12.625 C 505.367188 13.804688 505.488281 15.417969 505.488281 17.496094 L 505.488281 102.765625 C 505.488281 105.6875 505.269531 107.777344 504.84375 109.023438 C 504.398438 110.253906 503.324219 111.25 501.597656 112.011719 C 500.734375 112.441406 499.210938 112.878906 497.066406 113.296875 C 494.886719 113.742188 493.800781 114.390625 493.800781 115.25 C 493.800781 116.441406 494.691406 117.019531 496.410156 117.019531 C 499.007812 116.832031 501.355469 116.613281 503.457031 116.414062 C 505.582031 116.207031 508.625 116.109375 512.617188 116.109375 C 513.605469 116.109375 516.460938 116.257812 521.214844 116.578125 C 525.980469 116.882812 528.574219 117.023438 528.996094 117.023438 C 530.628906 117.023438 531.445312 116.554688 531.445312 115.585938 C 531.445312 114.5 530.390625 113.746094 528.269531 113.304688 C 526.160156 112.886719 524.621094 112.441406 523.65625 112.015625 C 521.800781 111.148438 520.699219 110.15625 520.332031 109.027344 C 519.953125 107.886719 519.757812 105.800781 519.757812 102.769531 L 519.757812 72.148438 C 519.757812 65.457031 521.789062 59.878906 525.851562 55.453125 C 529.902344 51.027344 534.734375 48.800781 540.363281 48.800781 C 550.515625 48.800781 555.609375 54.535156 555.609375 65.980469 L 555.609375 102.769531 C 555.609375 105.691406 555.375 107.78125 554.941406 109.027344 C 554.519531 110.261719 553.4375 111.253906 551.707031 112.015625 C 550.84375 112.445312 549.335938 112.886719 547.171875 113.304688 C 545.011719 113.746094 543.933594 114.394531 543.933594 115.257812 C 543.933594 116.449219 544.742188 117.023438 546.363281 117.023438 C 548.960938 116.835938 551.335938 116.621094 553.492188 116.417969 C 555.652344 116.214844 558.734375 116.113281 562.738281 116.113281 C 563.820312 116.113281 566.679688 116.261719 571.34375 116.585938 C 575.976562 116.886719 578.53125 117.027344 578.949219 117.027344 C 580.679688 117.027344 581.554688 116.558594 581.554688 115.589844 C 581.554688 114.503906 580.503906 113.753906 578.382812 113.308594 " clip-rule="nonzero"/></clipPath><clipPath id="d026b9264c"><path d="M 592.738281 43.609375 L 664.738281 43.609375 L 664.738281 119.3125 L 592.738281 119.3125 Z M 592.738281 43.609375 " clip-rule="nonzero"/></clipPath><clipPath id="816936c014"><path d="M 637.492188 98.792969 C 637.492188 102.386719 635.464844 105.664062 631.414062 108.597656 C 627.351562 111.546875 623.109375 113.023438 618.667969 113.023438 C 615.316406 113.023438 612.675781 111.933594 610.746094 109.757812 C 608.78125 107.582031 607.8125 104.625 607.8125 100.910156 C 607.8125 91.980469 617.707031 83.636719 637.488281 75.890625 L 637.492188 98.792969 M 663.277344 109.121094 C 662.949219 109.121094 662.058594 109.664062 660.597656 110.746094 C 659.136719 111.832031 657.816406 112.371094 656.625 112.371094 C 653.054688 112.371094 651.285156 109.457031 651.285156 103.589844 L 651.285156 62.308594 C 651.28125 49.855469 641.976562 43.609375 623.386719 43.609375 C 614.628906 43.609375 607.761719 44.917969 602.800781 47.511719 C 597.804688 50.105469 595.320312 53.289062 595.320312 57.082031 C 595.320312 61.082031 597.214844 63.082031 600.992188 63.082031 C 603.589844 63.082031 605.378906 62.324219 606.355469 60.8125 C 606.898438 59.9375 607.417969 57.894531 607.972656 54.644531 C 608.613281 49.457031 613.261719 46.871094 621.917969 46.871094 C 632.289062 46.871094 637.488281 51.101562 637.488281 59.558594 L 637.488281 72.429688 C 607.652344 83.296875 592.738281 93.933594 592.738281 104.363281 C 592.738281 108.921875 594.214844 112.535156 597.1875 115.203125 C 600.171875 117.863281 604.183594 119.195312 609.277344 119.195312 C 619.757812 119.195312 629.003906 115.359375 637.007812 107.675781 C 637.765625 111.183594 639.441406 113.976562 642.042969 116.066406 C 644.628906 118.140625 647.707031 119.195312 651.285156 119.195312 C 654.730469 119.195312 657.84375 118.144531 660.601562 116.058594 C 663.355469 113.96875 664.734375 112.15625 664.734375 110.605469 C 664.734375 109.628906 664.25 109.128906 663.28125 109.128906 " clip-rule="nonzero"/></clipPath><clipPath id="60281dd8d0"><path d="M 705 62.296875 L 741 62.296875 L 741 119.492188 L 705 119.492188 Z M 705 62.296875 " clip-rule="nonzero"/></clipPath><clipPath id="470267de84"><path d="M 735.726562 80.375 C 731.371094 80.375 727.242188 80.375 722.882812 80.714844 L 722.660156 80.609375 C 720.484375 80.378906 712.226562 80.714844 710.738281 81.628906 C 709.597656 80.835938 709.941406 79 709.480469 77.625 C 709.25 75.675781 711.425781 76.359375 712.453125 75.914062 C 713.710938 76.71875 718.078125 76.589844 722.417969 76.363281 C 727.113281 76.027344 731.820312 75.328125 732.625 75.328125 C 733.53125 74.421875 735.035156 74.890625 735.71875 75.914062 C 735.71875 77.398438 736.859375 79 735.71875 80.378906 M 733.085938 90.453125 C 730.792969 90.453125 729.078125 92.179688 726.792969 92.398438 C 726.558594 92.632812 724.5 92.867188 722.421875 92.867188 C 720.367188 92.867188 718.308594 92.746094 717.96875 92.398438 C 715.558594 93.316406 713.84375 91.363281 712.234375 89.652344 C 712.003906 88.285156 710.515625 85.996094 710.742188 84.5 C 713.953125 83.242188 718.648438 84.277344 722.421875 83.921875 C 723.339844 83.8125 724.148438 83.703125 724.835938 83.460938 C 727.023438 84.613281 735.382812 83.574219 736.179688 83.460938 C 735.382812 85.632812 736.304688 90.351562 733.089844 90.460938 M 712.808594 66.738281 C 715.800781 66.855469 718.988281 66.160156 722.425781 66.402344 L 722.667969 66.402344 C 726.566406 66.625 730.921875 66.285156 734.695312 66.511719 L 735.488281 67.652344 C 735.847656 69.039062 735.609375 71.089844 735.730469 72.582031 C 734.125 73.273438 732.398438 72.351562 730.914062 72.230469 C 729.425781 72.230469 725.757812 72.582031 722.421875 72.921875 C 719.796875 73.160156 717.394531 73.273438 716.816406 73.046875 C 715.441406 73.730469 713.84375 72.824219 712.234375 73.617188 C 711.429688 72.921875 710.179688 74.414062 709.488281 73.273438 C 708.453125 70.394531 710.972656 68.238281 712.800781 66.738281 M 736.976562 64.679688 C 735.484375 62.953125 733.085938 62.492188 730.910156 63.1875 C 728.046875 62.839844 725.183594 62.953125 722.417969 62.953125 L 718.308594 62.953125 C 716.582031 63.535156 711.550781 62.953125 709.253906 63.652344 C 706.277344 66.972656 704.777344 72.132812 706.171875 76.589844 C 704.777344 80.949219 707.308594 91.035156 710.402344 94.472656 C 710.964844 94.578125 711.890625 96.1875 714.296875 96.1875 C 715.210938 96.535156 715.789062 96.761719 715.667969 98.933594 C 714.296875 102.261719 713.835938 105.921875 712.914062 109.019531 C 711.882812 110.964844 711.078125 114.167969 709.824219 115.550781 C 709.597656 116.695312 709.371094 118.296875 710.171875 119.3125 C 710.855469 119.433594 711.203125 118.761719 711.664062 118.761719 C 714.972656 113.601562 716.355469 107.527344 717.617188 101.566406 C 718.308594 99.835938 717.726562 99.054688 719.109375 97.660156 C 719.449219 97.09375 720.828125 96.640625 722.417969 96.53125 C 724.496094 96.292969 727.015625 96.53125 728.277344 97.660156 C 729.757812 102.617188 729.976562 107.871094 732.394531 112.457031 C 734.222656 114.75 734 118.640625 737.214844 119.433594 C 737.90625 119.097656 736.753906 118.761719 737.214844 118.292969 C 738.242188 114.621094 735.484375 111.878906 734.335938 108.90625 C 733.421875 105.699219 732.863281 102.132812 731.824219 99.054688 C 731.597656 97.660156 731.015625 95.722656 732.863281 94.925781 C 734.472656 94.246094 736.523438 93.667969 737.214844 91.707031 C 738.929688 89.648438 738.703125 85.992188 739.382812 83.453125 C 740.542969 80.945312 740.542969 77.738281 740.414062 75.105469 C 739.964844 71.554688 741.105469 66.152344 736.980469 64.675781 " clip-rule="nonzero"/></clipPath><clipPath id="7258f5acd8"><path d="M 694 44.800781 L 749.738281 44.800781 L 749.738281 60.613281 L 694 60.613281 Z M 694 44.800781 " clip-rule="nonzero"/></clipPath><clipPath id="273d4b38d8"><path d="M 726.667969 55.855469 C 724.71875 54.492188 727.023438 51.726562 726.667969 50.011719 C 727.246094 47.039062 736.175781 47.941406 738.707031 47.941406 C 740.871094 48.503906 743.167969 47.941406 745.574219 48.503906 C 746.496094 48.0625 748.449219 48.636719 748.554688 47.253906 C 747.867188 45.421875 746.039062 45.539062 744.546875 45.183594 C 738.347656 45.421875 732.0625 45.3125 725.636719 45.539062 L 722.421875 45.539062 C 715.558594 45.65625 708.679688 45.769531 702.164062 44.96875 C 700.890625 45.539062 698.484375 45.65625 698.707031 47.722656 L 699.171875 47.941406 C 700.089844 48.398438 701.460938 48.179688 701.925781 48.179688 C 707.074219 49.207031 716.472656 47.835938 721.402344 48.503906 C 721.855469 49.441406 722.417969 50.359375 722.316406 51.492188 C 722.417969 52.753906 722.417969 55.164062 721.402344 55.847656 C 718.078125 55.503906 706.730469 54.933594 703.289062 56.535156 C 700.417969 56.089844 696.871094 56.3125 694.589844 57.34375 C 694.121094 58.378906 694.472656 59.738281 695.617188 60.097656 C 698.480469 60.4375 706.046875 58.828125 709.824219 59.167969 C 712.796875 58.378906 718.414062 59.167969 722.421875 59.28125 C 723.910156 59.28125 725.1875 59.167969 726.097656 58.933594 C 729.421875 58.378906 746.15625 59.511719 748.777344 58.933594 C 749.351562 58.484375 749.695312 57.917969 749.46875 57.109375 C 748.902344 55.738281 730.558594 55.289062 726.660156 55.847656 " clip-rule="nonzero"/></clipPath><clipPath id="2857cef079"><path d="M 784.191406 45.363281 L 807.40625 45.363281 L 807.40625 64.878906 L 784.191406 64.878906 Z M 784.191406 45.363281 " clip-rule="nonzero"/></clipPath><clipPath id="b28e41081a"><path d="M 784.5625 53.257812 C 784.5625 53.796875 784.683594 54.59375 784.957031 55.382812 L 785.625 57.652344 C 785.761719 58.308594 786.023438 58.855469 786.144531 59.394531 C 786.558594 59.789062 787.089844 60.054688 787.75 60.445312 C 788.289062 60.71875 789.09375 60.984375 790 61.117188 L 792.277344 61.386719 C 793.085938 61.386719 793.605469 61.515625 794.140625 61.644531 L 794.140625 62.695312 C 794.140625 62.96875 794.28125 63.234375 794.28125 63.371094 L 794.414062 63.769531 C 794.820312 64.175781 795.070312 64.308594 795.347656 64.566406 L 795.613281 64.441406 L 797.085938 63.90625 C 797.214844 62.839844 797.359375 61.90625 797.484375 60.851562 L 798.011719 61.117188 C 798.683594 61.246094 799.089844 61.246094 799.625 61.117188 L 801.089844 60.984375 C 801.488281 60.851562 801.882812 60.851562 802.148438 60.851562 C 802.808594 60.851562 803.496094 60.308594 804.285156 59.503906 C 805.078125 58.71875 805.746094 57.253906 806.277344 55.378906 C 806.953125 53.511719 807.210938 51.777344 807.078125 50.320312 C 807.078125 48.722656 806.957031 47.507812 806.8125 46.597656 L 806.421875 46.054688 C 806.160156 45.785156 806.023438 45.65625 805.878906 45.65625 L 805.476562 45.53125 C 805.066406 45.664062 804.804688 45.789062 804.671875 45.789062 L 804.40625 45.929688 C 804.132812 46.328125 803.878906 46.859375 803.753906 47.382812 L 803.339844 48.867188 C 803.492188 49.664062 803.613281 50.324219 803.753906 51.132812 C 803.613281 52.1875 803.339844 53 802.929688 53.925781 C 800.933594 58.316406 799.082031 56.851562 797.082031 56.183594 L 797.082031 45.925781 C 796.949219 45.785156 796.683594 45.65625 796.402344 45.65625 L 796.011719 45.53125 L 795.613281 45.664062 C 795.230469 45.664062 794.941406 45.789062 794.683594 45.789062 L 794.28125 45.929688 C 794.015625 46.328125 794.015625 47 793.882812 47.800781 C 793.882812 48.46875 793.742188 49.386719 793.742188 50.476562 L 793.484375 53.390625 C 793.351562 54.195312 793.351562 56.191406 793.210938 56.730469 C 791.46875 57.789062 788.945312 58.195312 787.878906 53.519531 L 787.746094 52.871094 L 787.746094 47.382812 C 787.347656 46.859375 786.945312 46.324219 786.554688 45.929688 L 784.425781 45.929688 L 784.425781 48.328125 C 784.289062 48.726562 784.289062 49.128906 784.289062 49.664062 L 784.289062 50.980469 C 784.289062 51.253906 784.425781 51.648438 784.425781 51.929688 C 784.425781 52.183594 784.425781 52.734375 784.5625 53.253906 " clip-rule="nonzero"/></clipPath><clipPath id="0f0440b6b4"><path d="M 756.269531 91.121094 L 774.773438 91.121094 L 774.773438 119.382812 L 756.269531 119.382812 Z M 756.269531 91.121094 " clip-rule="nonzero"/></clipPath><clipPath id="f200ce162f"><path d="M 774.019531 91.234375 L 772.96875 91.234375 C 772.832031 91.234375 772.703125 91.234375 772.425781 91.355469 L 772.027344 91.628906 C 771.761719 92.167969 771.625 92.308594 771.625 92.566406 C 771.625 93.105469 771.5 93.625 771.363281 94.296875 C 770.96875 96.695312 770.429688 99.097656 769.507812 101.503906 C 768.960938 102.964844 768.441406 104.304688 767.628906 105.5 C 766.828125 107.089844 765.640625 108.957031 764.308594 110.4375 C 762.976562 111.890625 760.832031 113.101562 759.773438 113.757812 C 758.570312 114.4375 757.652344 114.964844 756.964844 115.226562 L 756.566406 115.761719 L 756.4375 117.347656 L 756.4375 118.695312 C 756.964844 118.945312 757.378906 119.222656 757.777344 119.351562 C 758.175781 119.351562 758.445312 119.351562 758.972656 119.085938 C 759.503906 118.945312 760.039062 118.695312 760.695312 118.160156 C 761.507812 117.75 762.042969 117.347656 762.695312 116.953125 C 763.238281 116.546875 763.628906 116.15625 764.035156 115.882812 C 764.964844 115.214844 766.171875 113.355469 767.367188 112.015625 L 769.507812 109.621094 C 770.03125 108.828125 770.699219 108.023438 771.226562 106.96875 C 772.425781 104.421875 773.230469 102.296875 773.757812 100.15625 C 774.160156 98.152344 774.558594 96.574219 774.695312 95.367188 L 774.695312 91.910156 C 774.558594 91.757812 774.558594 91.628906 774.425781 91.496094 L 774.160156 91.355469 " clip-rule="nonzero"/></clipPath><clipPath id="8d04492b84"><path d="M 758 71 L 807 71 L 807 119.382812 L 758 119.382812 Z M 758 71 " clip-rule="nonzero"/></clipPath><clipPath id="5b27f7c578"><path d="M 795.613281 88.429688 C 796.820312 88.429688 798.007812 88.300781 798.949219 88.300781 C 800.542969 88.164062 801.875 88.039062 803.078125 87.777344 C 810.929688 85.097656 802.9375 84.039062 799.21875 85.371094 L 793.605469 85.371094 C 791.355469 85.371094 789.613281 85.242188 788.023438 85.242188 C 786.417969 85.097656 785.484375 85.097656 784.421875 85.097656 C 784.421875 84.851562 784.5625 84.304688 784.5625 83.769531 C 784.683594 83.105469 784.289062 80.292969 784.289062 79.519531 C 784.425781 78.703125 784.5625 78.039062 784.5625 77.496094 C 784.683594 76.976562 784.683594 76.574219 784.683594 76.296875 C 784.683594 74.714844 784.949219 73.511719 784.5625 72.855469 C 784.015625 71.789062 782.554688 71.109375 781.886719 71.25 C 781.355469 71.371094 780.691406 72.429688 780.285156 73.378906 C 780.019531 74.3125 780.285156 75.65625 780.414062 76.984375 L 780.953125 85.097656 C 777.761719 85.097656 773.363281 85.773438 769.503906 85.632812 L 767.625 85.511719 C 765.886719 85.242188 762.441406 84.851562 760.691406 85.242188 C 758.566406 85.777344 756.828125 86.96875 760.828125 88.164062 C 761.503906 88.164062 762.164062 88.429688 763.359375 88.429688 L 780.417969 88.429688 C 780.292969 97.375 780.554688 106.300781 780.417969 115.214844 L 780.417969 116.683594 C 780.417969 117.078125 780.554688 117.480469 780.554688 117.875 L 780.695312 118.421875 C 780.957031 118.824219 781.09375 118.945312 781.363281 119.085938 L 781.613281 119.222656 L 782.558594 119.351562 L 782.957031 119.351562 C 783.359375 119.222656 784.015625 118.945312 784.289062 118.695312 L 784.289062 88.429688 C 785.347656 88.300781 786.023438 88.300781 787.621094 88.300781 L 793.351562 88.300781 C 794.140625 88.429688 794.941406 88.429688 795.613281 88.429688 " clip-rule="nonzero"/></clipPath><clipPath id="347f8e8545"><path d="M 758 63.195312 L 807.070312 63.195312 L 807.070312 76.316406 L 758 76.316406 Z M 758 63.195312 " clip-rule="nonzero"/></clipPath><clipPath id="dff31ef568"><path d="M 760.570312 76.050781 C 761.363281 76.164062 762.566406 75.765625 763.628906 75.25 C 764.441406 74.964844 765.097656 74.832031 765.761719 74.582031 L 765.761719 74.445312 L 769.507812 72.976562 C 770.976562 72.304688 772.425781 71.648438 774.023438 71.246094 C 776.699219 70.179688 779.496094 68.3125 782.558594 67.902344 C 784.820312 67.652344 789.613281 70.03125 791.621094 70.964844 L 795.613281 72.976562 C 797.480469 73.777344 799.21875 74.710938 801.085938 75.644531 C 802.289062 76.164062 803.339844 76.164062 804.273438 76.292969 C 805.207031 76.292969 806.535156 76.292969 807.070312 76.164062 C 807.070312 71.507812 806.949219 72.976562 801.613281 70.851562 C 799.886719 70.039062 797.878906 68.851562 795.613281 68.042969 L 795.230469 67.773438 C 792.554688 66.847656 790.429688 66.050781 788.558594 65.375 C 786.679688 64.574219 783.757812 63.90625 782.554688 63.242188 C 781.214844 63.652344 780.285156 64.175781 778.15625 64.980469 C 776.023438 65.640625 774.15625 66.570312 771.359375 67.773438 L 769.496094 68.570312 C 767.484375 69.257812 765.753906 70.03125 764.15625 70.582031 C 762.160156 71.367188 760.558594 71.902344 759.089844 72.300781 L 758.304688 73.777344 C 758.171875 75.765625 757.378906 75.519531 760.570312 76.050781 " clip-rule="nonzero"/></clipPath><clipPath id="a712bc157a"><path d="M 788.566406 91.121094 L 807.746094 91.121094 L 807.746094 119.71875 L 788.566406 119.71875 Z M 788.566406 91.121094 " clip-rule="nonzero"/></clipPath><clipPath id="18e8ebbca5"><path d="M 805.867188 115.882812 C 801.875 114.277344 799.617188 112.425781 797.878906 108.023438 C 797.480469 106.964844 796.820312 105.886719 796.011719 104.558594 L 795.761719 104.03125 C 795.074219 102.679688 794.558594 101.375 794.019531 99.757812 C 793.488281 97.902344 793.089844 96.4375 792.691406 95.109375 C 792.425781 93.761719 792.148438 92.703125 792.015625 91.910156 L 791.625 91.628906 C 791.226562 91.355469 791.09375 91.355469 790.824219 91.234375 L 789.753906 91.234375 C 789.503906 91.910156 789.09375 92.566406 788.8125 93.234375 L 788.8125 95.371094 C 789.09375 96.296875 789.355469 97.375 789.613281 98.699219 C 790.007812 100.15625 790.820312 102.03125 791.476562 103.890625 C 792.148438 105.632812 792.558594 106.96875 793.351562 108.421875 C 794.140625 109.769531 794.820312 110.957031 795.484375 111.886719 L 795.613281 112.023438 L 797.757812 114.433594 C 798.539062 115.480469 799.617188 116.414062 800.933594 117.351562 C 802.140625 118.421875 803.203125 118.949219 804.128906 119.222656 C 805.0625 119.480469 805.863281 119.480469 806.53125 119.351562 L 806.53125 119.085938 L 806.796875 118.695312 C 806.945312 118.292969 807.066406 118.160156 807.195312 118.160156 L 807.335938 118.011719 C 807.472656 117.480469 806.410156 116.15625 805.863281 115.878906 " clip-rule="nonzero"/></clipPath><clipPath id="1eea001704"><path d="M 758.285156 45.363281 L 780.828125 45.363281 L 780.828125 64.878906 L 758.285156 64.878906 Z M 758.285156 45.363281 " clip-rule="nonzero"/></clipPath><clipPath id="b031c5e9f8"><path d="M 762.820312 60.3125 C 764.03125 60.859375 764.953125 60.984375 765.894531 60.984375 C 766.699219 60.851562 767.488281 60.851562 768.019531 60.851562 L 768.4375 64.574219 L 769.625 64.574219 C 770.03125 64.441406 770.164062 64.308594 770.429688 64.308594 L 770.835938 64.046875 L 770.96875 63.234375 L 770.96875 62.328125 C 771.085938 62.0625 771.085938 61.652344 771.222656 61.394531 L 771.363281 60.988281 C 771.894531 60.726562 772.425781 60.726562 773.226562 60.726562 C 773.898438 60.726562 774.832031 60.585938 775.894531 60.316406 C 776.820312 60.0625 777.757812 59.515625 778.5625 58.859375 C 779.363281 58.058594 780.023438 57.269531 780.691406 56.320312 L 780.691406 51.253906 C 780.691406 50.183594 780.691406 49.253906 780.550781 48.464844 C 780.414062 47.796875 780.414062 47.109375 780.15625 46.597656 L 779.882812 46.054688 L 778.5625 45.925781 C 778.285156 46.054688 778.027344 46.324219 777.757812 46.597656 L 777.757812 52.589844 C 777.214844 53.382812 776.820312 54.1875 776.429688 54.859375 C 773.757812 58.183594 774.160156 55.519531 771.363281 55.65625 L 771.363281 53.382812 C 771.222656 52.457031 771.222656 51.511719 771.222656 50.472656 C 771.082031 49.382812 771.082031 48.464844 770.96875 47.796875 L 770.96875 45.925781 C 770.691406 45.789062 770.5625 45.65625 770.164062 45.65625 L 769.765625 45.53125 L 769.367188 45.53125 C 768.96875 45.664062 768.710938 45.789062 768.574219 45.789062 L 768.175781 45.925781 C 768.027344 46.324219 768.027344 46.996094 767.90625 47.660156 C 767.90625 48.320312 767.90625 49.128906 767.765625 50.046875 L 767.628906 52.320312 L 767.628906 54.1875 C 767.765625 54.589844 767.902344 55.109375 768.023438 55.648438 C 764.960938 57.261719 763.496094 57.375 762.167969 53.253906 C 761.90625 52.589844 761.507812 51.777344 761.367188 50.589844 C 761.367188 49.660156 761.230469 48.605469 761.097656 47.796875 C 760.96875 46.996094 760.695312 46.324219 760.4375 45.925781 L 760.308594 45.789062 L 759.765625 45.664062 C 759.367188 45.53125 759.230469 45.53125 759.09375 45.664062 L 758.832031 45.789062 C 758.691406 46.191406 758.5625 46.722656 758.5625 47.117188 L 758.445312 48.863281 C 758.304688 49.523438 758.304688 50.046875 758.304688 50.589844 L 758.304688 54.1875 C 758.691406 55.378906 759.367188 56.589844 760.035156 57.78125 C 760.832031 58.980469 761.777344 59.789062 762.820312 60.3125 " clip-rule="nonzero"/></clipPath></defs><g clip-path="url(#ff6d9d2ebf)"><g clip-path="url(#d01d65338c)"><path fill="#382f2d" d="M 0 5.511719 L 115.066406 5.511719 L 115.066406 119.230469 L 0 119.230469 Z M 0 5.511719 " fill-opacity="1" fill-rule="nonzero"/></g></g><g clip-path="url(#e8f538f44c)"><g clip-path="url(#937021799e)"><path fill="#382f2d" d="M 122.425781 43.453125 L 199.808594 43.453125 L 199.808594 119.15625 L 122.425781 119.15625 Z M 122.425781 43.453125 " fill-opacity="1" fill-rule="nonzero"/></g></g><g clip-path="url(#34e603d7c8)"><g clip-path="url(#d128611575)"><path fill="#382f2d" d="M 208.695312 42.964844 L 296.171875 42.964844 L 296.171875 116.980469 L 208.695312 116.980469 Z M 208.695312 42.964844 " fill-opacity="1" fill-rule="nonzero"/></g></g><g clip-path="url(#3de52e13c9)"><g clip-path="url(#6004478272)"><path fill="#382f2d" d="M 305.515625 30.917969 L 380.207031 30.917969 L 380.207031 161.796875 L 305.515625 161.796875 Z M 305.515625 30.917969 " fill-opacity="1" fill-rule="nonzero"/></g></g><g clip-path="url(#5d4e60a4a1)"><g clip-path="url(#9e2ef5c3ed)"><path fill="#382f2d" d="M 419.664062 43.457031 L 481.570312 43.457031 L 481.570312 119.15625 L 419.664062 119.15625 Z M 419.664062 43.457031 " fill-opacity="1" fill-rule="nonzero"/></g></g><g clip-path="url(#ffb3bb41e8)"><g clip-path="url(#d9f429b945)"><path fill="#382f2d" d="M 492.3125 0 L 581.472656 0 L 581.472656 117.082031 L 492.3125 117.082031 Z M 492.3125 0 " fill-opacity="1" fill-rule="nonzero"/></g></g><g clip-path="url(#d026b9264c)"><g clip-path="url(#816936c014)"><path fill="#382f2d" d="M 592.738281 43.609375 L 664.738281 43.609375 L 664.738281 119.3125 L 592.738281 119.3125 Z M 592.738281 43.609375 " fill-opacity="1" fill-rule="nonzero"/></g></g><g clip-path="url(#60281dd8d0)"><g clip-path="url(#470267de84)"><path fill="#c20430" d="M 691.867188 42.445312 L 752.09375 42.445312 L 752.09375 121.847656 L 691.867188 121.847656 Z M 691.867188 42.445312 " fill-opacity="1" fill-rule="nonzero"/></g></g><g clip-path="url(#7258f5acd8)"><g clip-path="url(#273d4b38d8)"><path fill="#c20430" d="M 691.867188 42.445312 L 752.09375 42.445312 L 752.09375 121.847656 L 691.867188 121.847656 Z M 691.867188 42.445312 " fill-opacity="1" fill-rule="nonzero"/></g></g><g clip-path="url(#2857cef079)"><g clip-path="url(#b28e41081a)"><path fill="#c20430" d="M 753.914062 43.007812 L 810.097656 43.007812 L 810.097656 122.074219 L 753.914062 122.074219 Z M 753.914062 43.007812 " fill-opacity="1" fill-rule="nonzero"/></g></g><g clip-path="url(#0f0440b6b4)"><g clip-path="url(#f200ce162f)"><path fill="#c20430" d="M 753.914062 43.007812 L 810.097656 43.007812 L 810.097656 122.074219 L 753.914062 122.074219 Z M 753.914062 43.007812 " fill-opacity="1" fill-rule="nonzero"/></g></g><g clip-path="url(#8d04492b84)"><g clip-path="url(#5b27f7c578)"><path fill="#c20430" d="M 753.914062 43.007812 L 810.097656 43.007812 L 810.097656 122.074219 L 753.914062 122.074219 Z M 753.914062 43.007812 " fill-opacity="1" fill-rule="nonzero"/></g></g><g clip-path="url(#347f8e8545)"><g clip-path="url(#dff31ef568)"><path fill="#c20430" d="M 753.914062 43.007812 L 810.097656 43.007812 L 810.097656 122.074219 L 753.914062 122.074219 Z M 753.914062 43.007812 " fill-opacity="1" fill-rule="nonzero"/></g></g><g clip-path="url(#a712bc157a)"><g clip-path="url(#18e8ebbca5)"><path fill="#c20430" d="M 753.914062 43.007812 L 810.097656 43.007812 L 810.097656 122.074219 L 753.914062 122.074219 Z M 753.914062 43.007812 " fill-opacity="1" fill-rule="nonzero"/></g></g><g clip-path="url(#1eea001704)"><g clip-path="url(#b031c5e9f8)"><path fill="#c20430" d="M 753.914062 43.007812 L 810.097656 43.007812 L 810.097656 122.074219 L 753.914062 122.074219 Z M 753.914062 43.007812 " fill-opacity="1" fill-rule="nonzero"/></g></g></svg>